P2
8 8 
255
20 0 0 0 0 0 0 30 
0 0 0 0 0 0 0 0 
0 0 0 0 0 0 0 0 
0 0 0 40 0 0 0 0 
0 0 0 0 0 0 0 0 
0 0 0 0 0 0 0 0 
0 0 0 0 0 0 0 0 
50 0 0 0 0 0 0 60 
