P2
41 41 
255
0 0 0 0 0 0 0 3 3 0 0 0 0 0 0 0 0 0 0 0 0 0 0 0 0 0 0 0 0 0 0 0 0 0 0 0 0 0 0 0 0 
0 0 0 3 3 0 0 3 3 3 3 0 0 0 3 3 0 0 0 0 0 0 0 0 0 0 0 0 0 0 0 0 0 0 0 0 0 0 0 0 0 
0 0 0 6 6 0 0 0 0 3 3 0 0 0 3 3 0 0 0 0 0 0 0 0 0 0 0 0 0 0 0 0 0 0 0 0 0 0 0 0 0 
0 0 6 42 36 0 0 0 0 0 0 0 0 0 0 0 0 0 0 0 0 0 0 0 0 0 0 0 0 0 0 0 0 0 0 0 0 0 0 0 0 
0 0 6 60 54 0 0 0 0 0 0 0 0 0 0 0 0 0 0 0 0 0 0 0 0 0 0 0 0 0 0 0 0 0 0 0 0 0 0 0 0 
0 0 0 21 21 0 0 0 3 3 0 0 0 0 0 0 0 0 0 0 0 0 0 0 0 0 0 0 0 0 0 0 0 0 0 0 0 0 0 0 0 
0 42 42 21 21 0 21 21 3 3 0 0 0 0 0 0 0 0 0 0 0 0 0 3 6 3 0 0 0 0 0 0 0 0 0 0 0 0 0 0 0 
9 51 36 21 27 0 39 42 3 0 0 0 0 0 0 0 0 0 0 0 0 0 0 6 18 12 0 0 0 0 0 0 0 0 0 0 0 0 0 0 0 
48 63 24 18 21 39 51 30 6 0 0 0 0 0 0 0 0 0 0 0 0 0 3 6 78 75 0 0 0 0 0 0 0 0 0 0 0 0 0 0 0 
54 87 63 33 15 66 120 93 27 0 0 0 0 0 0 0 0 0 3 3 3 6 6 3 66 66 0 0 0 0 0 0 0 0 0 0 0 0 0 0 0 
18 45 42 18 3 27 87 96 39 3 0 0 0 0 0 0 0 0 3 3 3 6 3 0 0 0 0 0 0 0 0 0 0 0 0 0 0 0 0 0 0 
3 30 36 12 3 0 0 12 15 3 0 0 0 0 0 0 0 3 3 0 0 0 0 0 0 0 0 0 0 0 0 0 0 0 0 0 0 0 0 0 0 
3 48 87 42 0 0 0 0 0 0 0 0 0 0 3 3 3 6 3 0 0 0 0 0 0 0 0 0 0 0 0 0 0 0 0 0 0 0 0 0 0 
3 30 75 48 0 0 0 9 9 0 0 3 6 3 3 3 3 3 0 0 0 0 0 0 3 3 0 0 0 0 0 0 0 3 3 0 0 0 0 0 0 
3 3 33 63 51 21 0 9 12 3 3 9 21 15 0 0 0 0 0 0 3 15 21 9 3 24 21 0 0 0 0 0 3 12 9 0 0 0 0 0 0 
6 6 18 51 54 21 0 3 9 12 9 6 27 27 3 0 0 0 0 0 3 15 21 33 24 21 36 15 0 0 0 0 6 12 6 0 0 6 6 0 0 
75 75 15 18 9 6 12 15 6 9 6 0 12 15 3 0 0 0 0 0 0 3 3 24 24 0 21 21 0 0 0 0 9 9 0 3 6 12 15 6 0 
105 105 36 36 6 12 48 57 15 0 0 0 0 0 0 0 0 0 3 12 9 6 12 9 3 0 6 6 0 0 0 0 6 6 3 9 9 6 78 78 3 
51 51 39 39 0 9 39 45 21 6 0 0 0 0 0 0 0 0 3 24 21 6 12 27 21 24 24 0 0 0 6 6 0 6 12 9 9 6 87 96 9 
24 24 39 39 0 6 21 15 6 6 0 3 9 6 0 0 3 9 12 45 48 12 3 21 21 48 48 0 0 0 6 6 0 30 33 6 9 9 39 129 93 
12 12 39 39 0 12 33 21 0 0 3 9 15 24 15 3 9 12 18 45 54 30 15 9 3 39 48 9 0 0 0 0 0 30 33 6 9 9 48 201 156 
18 18 45 45 3 15 18 6 0 3 9 15 15 30 27 6 6 15 24 18 18 33 36 15 0 15 24 9 0 3 3 0 0 9 21 27 21 6 27 126 99 
27 27 66 66 6 15 9 0 0 15 30 21 12 15 12 6 6 18 39 27 3 15 54 39 0 0 0 0 0 3 3 0 0 6 30 45 21 0 3 48 45 
39 39 48 51 6 12 9 0 0 15 30 21 12 15 15 12 12 12 30 27 6 12 75 66 0 0 0 0 6 6 0 0 0 6 33 54 27 0 33 129 96 
48 48 21 24 3 9 9 3 9 15 15 12 24 39 33 36 36 18 18 15 6 24 57 36 0 0 0 0 6 6 0 0 0 12 39 135 108 0 33 147 114 
57 57 24 24 0 6 6 6 15 24 24 18 30 33 18 33 39 30 24 12 21 30 15 0 0 0 0 0 0 0 0 0 0 15 30 150 135 0 12 54 42 
45 45 39 48 9 0 12 18 12 21 27 36 39 15 0 18 21 27 36 24 33 21 0 0 69 69 0 24 24 0 0 0 0 36 42 84 99 72 108 69 12 
24 24 27 45 18 0 21 24 18 21 18 30 33 15 0 12 21 30 63 69 33 6 0 0 69 69 0 24 24 0 0 0 0 108 132 57 54 75 186 135 3 
27 27 0 15 15 6 15 9 33 39 12 9 15 12 0 0 9 21 51 69 30 0 0 0 0 0 18 18 0 0 3 3 0 78 177 108 9 3 96 93 0 
27 27 24 33 9 12 21 9 30 54 60 36 12 12 0 0 0 0 9 51 54 18 6 0 0 0 33 45 12 3 6 6 6 6 87 174 90 36 96 60 0 
33 33 24 27 3 9 30 24 12 30 60 42 12 9 0 0 0 0 0 30 51 27 9 3 0 0 24 36 12 9 9 6 9 6 6 159 159 45 111 72 3 
42 42 36 36 0 12 33 33 12 3 6 18 18 3 0 0 3 3 0 0 15 15 6 6 0 0 9 9 0 6 15 12 3 0 0 72 168 135 114 96 21 
36 36 36 42 6 9 18 30 39 18 0 12 84 72 0 6 12 30 24 0 9 9 3 24 21 0 0 0 9 27 30 15 3 3 9 6 93 126 93 102 42 
39 39 27 33 9 6 3 12 45 33 0 0 75 135 60 12 21 39 51 21 3 9 6 21 21 0 0 0 12 33 27 9 3 6 21 30 87 72 3 27 24 
45 45 42 42 3 9 12 6 24 24 0 0 3 63 60 6 15 21 36 117 66 0 45 36 0 0 0 0 3 12 12 3 0 3 12 27 93 75 0 0 0 
51 84 48 15 0 3 12 12 36 42 9 0 0 0 0 0 3 12 15 123 135 39 99 102 24 0 0 0 0 6 15 9 0 0 3 6 6 3 0 0 0 
63 114 51 0 0 0 3 12 36 45 21 3 0 3 3 3 3 3 6 27 69 96 162 126 30 69 57 18 0 0 9 96 87 0 6 6 3 3 0 0 0 
78 123 45 0 3 3 0 15 18 12 12 3 0 3 3 33 75 57 15 0 0 33 102 93 30 69 66 87 60 3 3 87 87 0 3 3 3 3 0 0 0 
48 108 60 0 3 3 0 21 36 15 0 0 0 0 0 39 87 63 15 0 0 0 0 9 39 81 60 69 60 3 3 0 0 0 0 0 0 3 3 0 0 
3 48 45 0 3 3 0 12 27 15 0 0 0 0 0 9 15 6 0 0 0 0 0 9 39 81 51 3 3 0 0 0 0 0 0 0 0 3 3 0 0 
0 12 12 0 3 3 0 0 0 0 0 0 0 0 0 0 0 0 0 0 0 0 0 0 0 0 0 3 3 0 0 0 0 0 0 0 0 0 0 0 0 
