P2
16 16 
255
132 132 0 0 0 0 0 0 0 0 0 0 0 0 0 0 
150 207 57 0 0 0 0 0 0 0 0 0 3 3 0 0 
51 153 102 0 0 0 0 0 0 0 0 0 33 33 0 0 
96 150 177 123 0 0 18 69 51 0 0 0 84 84 0 0 
93 102 150 162 42 30 72 237 174 0 0 0 87 87 0 0 
66 66 21 42 45 33 78 222 153 0 0 0 33 33 0 0 
72 72 6 69 87 33 39 78 75 72 69 54 30 0 0 0 
63 141 93 90 96 42 33 39 60 84 84 78 45 0 0 0 
36 144 162 72 30 45 51 27 24 27 30 33 15 0 0 0 
21 117 147 60 39 63 60 36 24 30 33 18 0 0 0 0 
45 195 195 63 45 48 39 36 33 42 54 27 9 126 117 0 
54 177 177 102 78 45 30 54 75 72 66 45 36 138 117 0 
87 183 114 54 117 108 72 93 105 78 33 63 63 12 99 99 
90 255 198 3 75 123 96 66 54 36 3 87 96 9 99 99 
24 165 141 0 12 42 45 24 12 3 0 51 78 30 183 180 
0 0 0 0 0 0 3 9 6 0 0 0 18 21 183 180 
