P2
41 41 
255
0 0 0 0 0 0 0 3 3 0 0 0 0 0 0 0 0 0 0 0 0 0 0 0 0 0 0 0 0 0 0 0 0 0 0 0 0 0 0 0 0 
0 0 0 0 0 0 0 3 3 3 3 0 0 0 3 3 0 0 0 0 0 0 0 0 0 0 0 0 0 0 0 0 0 0 0 0 0 0 0 0 0 
0 0 0 0 0 0 0 0 0 3 3 0 0 0 3 3 0 0 0 0 0 0 0 0 0 0 0 0 0 0 0 0 0 0 0 0 0 0 0 0 0 
0 0 3 3 0 0 0 0 0 0 0 0 0 0 0 0 0 0 0 0 0 0 0 0 0 0 0 0 0 0 0 0 0 0 0 0 0 0 0 0 0 
0 0 3 3 0 0 0 0 0 0 0 0 0 0 0 0 0 0 0 0 0 0 0 0 0 0 0 0 0 0 0 0 0 0 0 0 0 0 0 0 0 
0 0 0 0 0 0 0 0 3 3 0 0 0 0 0 0 0 0 0 0 0 0 0 0 0 0 0 0 0 0 0 0 0 0 0 0 0 0 0 0 0 
0 0 0 0 0 0 0 0 3 3 0 0 0 0 0 0 0 0 0 0 0 0 0 3 6 3 0 0 0 0 0 0 0 0 0 0 0 0 0 0 0 
0 0 0 0 0 0 0 0 0 0 0 0 0 0 0 0 0 0 0 0 0 0 0 6 18 12 0 0 0 0 0 0 0 0 0 0 0 0 0 0 0 
0 0 0 0 0 0 0 0 0 0 0 0 0 0 0 0 0 0 0 0 0 0 3 6 78 75 0 0 0 0 0 0 0 0 0 0 0 0 0 0 0 
0 0 0 0 0 0 0 0 0 0 0 0 0 0 0 0 0 0 3 3 3 6 6 3 66 66 0 0 0 0 0 0 0 0 0 0 0 0 0 0 0 
0 0 0 3 3 0 0 0 3 3 0 0 0 0 0 0 0 0 3 3 3 6 3 0 0 0 0 0 0 0 0 0 0 0 0 0 0 0 0 0 0 
0 0 0 3 3 0 0 0 3 3 0 0 0 0 0 0 0 3 3 0 0 0 0 0 0 0 0 0 0 0 0 0 0 0 0 0 0 0 0 0 0 
0 0 0 0 0 0 0 0 0 0 0 0 0 0 3 3 3 6 3 0 0 0 0 0 0 0 0 0 0 0 0 0 0 0 0 0 0 0 0 0 0 
0 0 0 0 0 0 0 3 3 0 0 3 6 3 3 3 3 3 0 0 0 0 0 0 0 0 0 0 0 0 0 0 0 3 3 0 0 0 0 0 0 
0 0 0 0 0 0 0 3 6 3 3 9 21 15 0 0 0 0 0 0 0 0 0 0 0 0 0 0 0 0 0 0 3 12 9 0 0 0 0 0 0 
0 0 0 0 0 0 0 0 6 12 9 6 27 27 3 0 0 0 0 0 0 0 0 0 0 0 0 0 0 0 0 0 6 12 6 0 0 6 6 0 0 
0 0 0 0 6 6 0 0 3 9 6 0 12 15 3 0 0 0 0 0 0 3 3 0 0 0 0 0 0 0 0 0 9 9 0 3 6 12 15 6 0 
0 0 0 0 6 12 6 0 0 0 0 0 0 0 0 0 0 0 3 12 9 6 12 9 3 0 0 0 0 0 0 0 6 6 3 9 9 6 78 78 3 
0 0 0 0 0 9 9 0 0 0 0 0 0 0 0 0 0 0 3 24 21 6 12 27 21 0 0 0 0 0 6 6 0 6 12 9 9 6 87 96 9 
0 0 0 0 0 6 21 15 0 0 0 3 9 6 0 0 3 9 12 30 33 12 3 21 21 0 0 0 0 0 6 6 0 30 33 6 9 9 39 129 93 
0 0 0 0 0 12 33 21 0 0 3 9 15 24 15 3 9 12 18 33 42 30 15 9 3 0 0 0 0 0 0 0 0 30 33 6 9 9 48 201 156 
0 0 0 0 3 15 18 6 0 3 9 15 15 30 27 6 6 15 24 21 21 33 36 15 0 0 0 0 0 3 3 0 0 9 21 27 21 6 27 126 99 
0 0 0 0 6 15 9 0 0 9 15 12 12 15 12 6 6 18 39 27 3 15 54 39 0 0 0 0 0 3 3 0 0 6 30 45 21 0 3 48 45 
0 0 0 3 6 12 9 0 0 9 15 9 9 15 15 12 12 12 30 27 6 12 75 66 0 0 0 0 6 6 0 0 0 6 33 54 27 0 33 129 96 
0 0 0 3 3 9 9 3 9 15 15 9 21 39 33 36 36 18 18 15 6 24 57 36 0 0 0 0 6 6 0 0 0 12 39 135 108 0 33 147 114 
0 0 3 3 0 6 6 6 15 24 24 15 27 33 18 33 39 30 24 12 21 30 15 0 0 0 0 0 0 0 0 0 0 15 30 150 135 0 12 54 42 
0 0 3 3 0 0 9 15 12 21 27 24 27 15 0 18 21 27 36 24 33 21 0 0 0 0 0 24 24 0 0 0 0 36 42 84 99 72 108 69 12 
0 0 0 3 3 0 15 18 18 21 18 21 24 15 0 12 21 30 63 69 33 6 0 0 0 0 0 24 24 0 0 0 0 108 132 57 54 75 186 135 3 
0 0 0 9 9 6 12 6 33 39 12 9 15 12 0 0 9 21 51 69 30 0 0 0 0 0 18 18 0 0 3 3 0 78 177 108 9 3 96 93 0 
0 0 0 6 6 12 21 9 30 54 30 6 12 12 0 0 0 0 9 51 54 18 6 0 0 0 33 45 12 3 6 6 6 6 87 174 90 36 96 60 0 
0 0 0 0 0 9 27 21 12 30 30 12 12 9 0 0 0 0 0 30 51 27 9 3 0 0 24 36 12 9 9 6 9 6 6 159 159 45 111 72 3 
0 0 0 0 0 12 30 30 12 3 6 18 18 3 0 0 3 3 0 0 15 15 6 6 0 0 9 9 0 6 15 12 3 0 0 72 168 135 114 96 21 
0 0 0 3 3 9 18 30 39 18 0 12 84 72 0 6 12 30 24 0 9 9 3 24 21 0 0 0 9 27 30 15 3 3 9 6 93 126 93 102 42 
0 0 0 3 6 6 3 12 45 33 0 0 75 135 60 12 21 39 51 21 3 9 6 21 21 0 0 0 12 33 27 9 3 6 21 30 87 72 3 27 24 
0 0 0 0 3 9 12 6 24 24 0 0 3 63 60 6 15 21 36 117 66 0 45 36 0 0 0 0 3 12 12 3 0 3 12 27 93 75 0 0 0 
0 0 0 0 0 3 12 12 36 42 9 0 0 0 0 0 3 12 15 123 135 39 99 102 24 0 0 0 0 6 15 9 0 0 3 6 6 3 0 0 0 
0 0 0 0 0 0 3 12 36 45 21 3 0 3 3 3 3 3 6 27 69 96 162 126 30 69 57 18 0 0 9 96 87 0 6 6 3 3 0 0 0 
0 0 0 0 0 0 0 15 18 12 12 3 0 3 3 33 75 57 15 0 0 33 102 93 30 69 66 87 60 3 3 87 87 0 3 3 3 3 0 0 0 
0 0 0 0 0 0 0 21 36 15 0 0 0 0 0 39 87 63 15 0 0 0 0 9 39 81 60 69 60 3 3 0 0 0 0 0 0 3 3 0 0 
0 0 0 0 0 0 0 12 27 15 0 0 0 0 0 9 15 6 0 0 0 0 0 9 39 81 51 3 3 0 0 0 0 0 0 0 0 3 3 0 0 
0 0 0 0 0 0 0 0 0 0 0 0 0 0 0 0 0 0 0 0 0 0 0 0 0 0 0 3 3 0 0 0 0 0 0 0 0 0 0 0 0 
