P2
8 8 
255
20 0 0 0 0 0 0 30 
24 96 72 0 0 0 0 0 
24 204 180 0 6 6 0 0 
57 180 123 106 129 63 0 0 
111 126 15 195 252 57 0 0 
54 54 0 129 252 123 0 0 
0 78 78 0 123 123 0 0 
50 78 78 0 0 0 0 60 
